# xmcd
#
# Track frame offsets:
#	150
#	20191
#	40787
#	57827
#	74969
#	97596
#	118489
#	136271
#	169180
#	186543
#	201185
#	216992
#	235011
#
# Disc length: 3398 seconds
#
# Revision: 0
# Processed by: cddbd v1.5.2PL0 Copyright (c) Steve Scherf et al.
# Submitted via: audiograbber 1.83.01
#
DISCID=c90d440d
DTITLE=Ryan Bingham - Roadhouse Sun
DYEAR=2009
DGENRE=Country
TTITLE0=Day Is Done
TTITLE1=Dylan's Hard Rain
TTITLE2=Tell My Mother I Miss Her So
TTITLE3=Country Roads
TTITLE4=Bluebird
TTITLE5=Snake Eyes
TTITLE6=Endless Ways
TTITLE7=Change Is
TTITLE8=Rollin' Highway Blues
TTITLE9=Hey Hey Hurray
TTITLE10=Roadhouse Blues
TTITLE11=Wishing Well
TTITLE12=Hobo (Amazon MP3 Exclusive)
EXTD=
EXTT0=
EXTT1=
EXTT2=
EXTT3=
EXTT4=
EXTT5=
EXTT6=
EXTT7=
EXTT8=
EXTT9=
EXTT10=
EXTT11=
EXTT12=
PLAYORDER=
